<svg width="50" height="50" viewBox="0 0 50 50" fill="none" xmlns="http://www.w3.org/2000/svg">
<path d="M25.0013 40.0001C19.793 40.0001 15.1888 37.3334 12.5013 33.3334C12.5638 29.1667 20.8346 26.8751 25.0013 26.8751C29.168 26.8751 37.4388 29.1667 37.5013 33.3334C34.8138 37.3334 30.2096 40.0001 25.0013 40.0001ZM25.0013 10.4167C26.6589 10.4167 28.2486 11.0752 29.4207 12.2473C30.5928 13.4194 31.2513 15.0091 31.2513 16.6667C31.2513 18.3244 30.5928 19.9141 29.4207 21.0862C28.2486 22.2583 26.6589 22.9167 25.0013 22.9167C23.3437 22.9167 21.754 22.2583 20.5819 21.0862C19.4098 19.9141 18.7513 18.3244 18.7513 16.6667C18.7513 15.0091 19.4098 13.4194 20.5819 12.2473C21.754 11.0752 23.3437 10.4167 25.0013 10.4167ZM25.0013 4.16675C22.2654 4.16675 19.5563 4.70562 17.0287 5.75259C14.5011 6.79956 12.2045 8.33414 10.2699 10.2687C6.3629 14.1757 4.16797 19.4747 4.16797 25.0001C4.16797 30.5254 6.3629 35.8245 10.2699 39.7315C12.2045 41.666 14.5011 43.2006 17.0287 44.2476C19.5563 45.2945 22.2654 45.8334 25.0013 45.8334C30.5266 45.8334 35.8257 43.6385 39.7327 39.7315C43.6397 35.8245 45.8346 30.5254 45.8346 25.0001C45.8346 13.4792 36.4596 4.16675 25.0013 4.16675Z" fill="#154162"/>
</svg>
