<svg width="34" height="34" viewBox="0 0 34 34" fill="none" xmlns="http://www.w3.org/2000/svg">
<path d="M16.9987 30.3335C9.6487 30.3335 3.66536 24.3502 3.66536 17.0002C3.66536 9.65016 9.6487 3.66683 16.9987 3.66683C24.3487 3.66683 30.332 9.65016 30.332 17.0002C30.332 24.3502 24.3487 30.3335 16.9987 30.3335ZM16.9987 0.333496C14.81 0.333496 12.6427 0.764592 10.6206 1.60217C8.59855 2.43975 6.76123 3.66741 5.21358 5.21505C2.08798 8.34066 0.332031 12.5799 0.332031 17.0002C0.332031 21.4204 2.08798 25.6597 5.21358 28.7853C6.76123 30.3329 8.59855 31.5606 10.6206 32.3982C12.6427 33.2357 14.81 33.6668 16.9987 33.6668C21.419 33.6668 25.6582 31.9109 28.7838 28.7853C31.9094 25.6597 33.6654 21.4204 33.6654 17.0002C33.6654 14.8115 33.2343 12.6442 32.3967 10.6221C31.5591 8.60001 30.3315 6.76269 28.7838 5.21505C27.2362 3.66741 25.3988 2.43975 23.3768 1.60217C21.3547 0.764592 19.1874 0.333496 16.9987 0.333496ZM18.6654 8.66683H15.332V15.3335H8.66537V18.6668H15.332V25.3335H18.6654V18.6668H25.332V15.3335H18.6654V8.66683Z" fill="#D2F7FF"/>
</svg>
