<svg width="50" height="50" viewBox="0 0 50 50" fill="none" xmlns="http://www.w3.org/2000/svg">
<path d="M22.918 31.2498H27.0846V35.4165H22.918V31.2498ZM22.918 14.5832H27.0846V27.0832H22.918V14.5832ZM25.0013 4.1665C13.4805 4.1665 4.16797 13.5415 4.16797 24.9998C4.16797 30.5252 6.3629 35.8242 10.2699 39.7312C12.2045 41.6658 14.5011 43.2004 17.0287 44.2473C19.5563 45.2943 22.2654 45.8332 25.0013 45.8332C30.5266 45.8332 35.8257 43.6382 39.7327 39.7312C43.6397 35.8242 45.8346 30.5252 45.8346 24.9998C45.8346 22.264 45.2958 19.5549 44.2488 17.0273C43.2018 14.4996 41.6673 12.203 39.7327 10.2684C37.7981 8.33389 35.5015 6.79932 32.9739 5.75235C30.4463 4.70537 27.7372 4.1665 25.0013 4.1665ZM25.0013 41.6665C20.581 41.6665 16.3418 39.9106 13.2162 36.785C10.0906 33.6593 8.33464 29.4201 8.33464 24.9998C8.33464 20.5796 10.0906 16.3403 13.2162 13.2147C16.3418 10.0891 20.581 8.33317 25.0013 8.33317C29.4216 8.33317 33.6608 10.0891 36.7864 13.2147C39.912 16.3403 41.668 20.5796 41.668 24.9998C41.668 29.4201 39.912 33.6593 36.7864 36.785C33.6608 39.9106 29.4216 41.6665 25.0013 41.6665Z" fill="#DD6565"/>
</svg>
