<svg width="34" height="34" viewBox="0 0 34 34" fill="none" xmlns="http://www.w3.org/2000/svg">
<g clip-path="url(#clip0_1033_6020)">
<path d="M15.8016 9.56001C16.8181 8.51386 18.2086 7.91438 19.6671 7.89345C21.1257 7.87251 22.5328 8.43184 23.5789 9.44838C24.6251 10.4649 25.2246 11.8554 25.2455 13.3139C25.2664 14.7725 24.7071 16.1796 23.6906 17.2258L16.3733 24.7562C15.634 25.517 14.6227 25.953 13.5619 25.9682C12.5012 25.9834 11.4778 25.5766 10.717 24.8373C9.95616 24.098 9.52017 23.0868 9.50495 22.026C9.48972 20.9653 9.8965 19.9419 10.6358 19.1811L16.5593 13.085C17.0214 12.6095 17.6534 12.337 18.3164 12.3275C18.9794 12.318 19.619 12.5722 20.0945 13.0343C20.57 13.4964 20.8425 14.1284 20.852 14.7914C20.8616 15.4543 20.6073 16.0939 20.1452 16.5695L14.9186 21.9483L13.8428 20.903L19.0695 15.5241C19.2543 15.3339 19.356 15.0781 19.3522 14.8129C19.3484 14.5477 19.2394 14.2949 19.0492 14.1101C18.859 13.9252 18.6031 13.8235 18.3379 13.8273C18.0728 13.8312 17.8199 13.9401 17.6351 14.1304L11.7116 20.2264C11.4828 20.4619 11.3026 20.7401 11.1813 21.0452C11.0601 21.3502 11.0001 21.6762 11.0048 22.0045C11.0095 22.3328 11.0788 22.6569 11.2088 22.9584C11.3388 23.2599 11.5269 23.5328 11.7623 23.7616C11.9978 23.9904 12.276 24.1705 12.5811 24.2918C12.8862 24.4131 13.2121 24.4731 13.5404 24.4684C13.8687 24.4636 14.1928 24.3943 14.4943 24.2644C14.7958 24.1344 15.0687 23.9463 15.2975 23.7108L22.6148 16.1804C23.3541 15.4196 23.7609 14.3962 23.7457 13.3355C23.7304 12.2747 23.2944 11.2635 22.5336 10.5242C21.7728 9.78485 20.7494 9.37807 19.6887 9.39329C18.6279 9.40852 17.6166 9.8445 16.8773 10.6053L10.2569 17.4186L9.18115 16.3732L15.8016 9.56001Z" fill="#154162"/>
</g>
<defs>
<clipPath id="clip0_1033_6020">
<rect width="24" height="24" fill="white" transform="translate(33.9375 16.7251) rotate(134.178)"/>
</clipPath>
</defs>
</svg>
