<svg width="34" height="34" viewBox="0 0 34 34" fill="none" xmlns="http://www.w3.org/2000/svg">
<path d="M15.332 22.0002H18.6654V25.3335H15.332V22.0002ZM15.332 8.66683H18.6654V18.6668H15.332V8.66683ZM16.9987 0.333496C7.78203 0.333496 0.332031 7.8335 0.332031 17.0002C0.332031 21.4204 2.08798 25.6597 5.21358 28.7853C6.76123 30.3329 8.59855 31.5606 10.6206 32.3982C12.6427 33.2357 14.81 33.6668 16.9987 33.6668C21.419 33.6668 25.6582 31.9109 28.7838 28.7853C31.9094 25.6597 33.6654 21.4204 33.6654 17.0002C33.6654 14.8115 33.2343 12.6442 32.3967 10.6221C31.5591 8.60001 30.3315 6.76269 28.7838 5.21505C27.2362 3.66741 25.3988 2.43975 23.3768 1.60217C21.3547 0.764592 19.1874 0.333496 16.9987 0.333496ZM16.9987 30.3335C13.4625 30.3335 10.0711 28.9287 7.57061 26.4283C5.07012 23.9278 3.66536 20.5364 3.66536 17.0002C3.66536 13.4639 5.07012 10.0726 7.57061 7.57207C10.0711 5.07159 13.4625 3.66683 16.9987 3.66683C20.5349 3.66683 23.9263 5.07159 26.4268 7.57207C28.9273 10.0726 30.332 13.4639 30.332 17.0002C30.332 20.5364 28.9273 23.9278 26.4268 26.4283C23.9263 28.9287 20.5349 30.3335 16.9987 30.3335Z" fill="#DD6565"/>
</svg>
