<svg width="40" height="40" viewBox="0 0 40 40" fill="none" xmlns="http://www.w3.org/2000/svg">
<path d="M20.0007 3.33325C29.1673 3.33325 36.6673 10.8333 36.6673 19.9999C36.6673 29.1666 29.1673 36.6666 20.0007 36.6666C10.834 36.6666 3.33398 29.1666 3.33398 19.9999C3.33398 10.8333 10.834 3.33325 20.0007 3.33325ZM20.0007 6.66659C16.834 6.66659 14.0007 7.66658 11.834 9.49992L30.5007 28.1666C32.1673 25.8333 33.334 22.9999 33.334 19.9999C33.334 12.6666 27.334 6.66659 20.0007 6.66659ZM28.1673 30.4999L9.50065 11.8333C7.66732 13.9999 6.66732 16.8333 6.66732 19.9999C6.66732 27.3333 12.6673 33.3333 20.0007 33.3333C23.1673 33.3333 26.0007 32.3333 28.1673 30.4999Z" fill="#DD6565"/>
</svg>
