<svg width="40" height="40" viewBox="0 0 40 40" fill="none" xmlns="http://www.w3.org/2000/svg">
<path d="M15 16.6667V20.0001H11.6667V16.6667H15ZM21.6667 16.6667V20.0001H18.3333V16.6667H21.6667ZM28.3333 16.6667V20.0001H25V16.6667H28.3333ZM31.6667 5.00008C32.5507 5.00008 33.3986 5.35127 34.0237 5.97639C34.6488 6.60151 35 7.44936 35 8.33342V31.6667C35 32.5508 34.6488 33.3987 34.0237 34.0238C33.3986 34.6489 32.5507 35.0001 31.6667 35.0001H8.33333C6.48333 35.0001 5 33.5001 5 31.6667V8.33342C5 7.44936 5.35119 6.60151 5.97631 5.97639C6.60143 5.35127 7.44928 5.00008 8.33333 5.00008H10V1.66675H13.3333V5.00008H26.6667V1.66675H30V5.00008H31.6667ZM31.6667 31.6667V13.3334H8.33333V31.6667H31.6667ZM15 23.3334V26.6667H11.6667V23.3334H15ZM21.6667 23.3334V26.6667H18.3333V23.3334H21.6667ZM28.3333 23.3334V26.6667H25V23.3334H28.3333Z" fill="#154162"/>
</svg>
