<svg width="26" height="26" viewBox="0 0 26 26" fill="none" xmlns="http://www.w3.org/2000/svg">
<path d="M9.75 10.8333V13H7.58333V10.8333H9.75ZM14.0833 10.8333V13H11.9167V10.8333H14.0833ZM18.4167 10.8333V13H16.25V10.8333H18.4167ZM20.5833 3.25001C21.158 3.25001 21.7091 3.47828 22.1154 3.88461C22.5217 4.29094 22.75 4.84204 22.75 5.41668V20.5833C22.75 21.158 22.5217 21.7091 22.1154 22.1154C21.7091 22.5217 21.158 22.75 20.5833 22.75H5.41667C4.21417 22.75 3.25 21.775 3.25 20.5833V5.41668C3.25 4.84204 3.47827 4.29094 3.8846 3.88461C4.29093 3.47828 4.84203 3.25001 5.41667 3.25001H6.5V1.08334H8.66667V3.25001H17.3333V1.08334H19.5V3.25001H20.5833ZM20.5833 20.5833V8.66668H5.41667V20.5833H20.5833ZM9.75 15.1667V17.3333H7.58333V15.1667H9.75ZM14.0833 15.1667V17.3333H11.9167V15.1667H14.0833ZM18.4167 15.1667V17.3333H16.25V15.1667H18.4167Z" fill="#154162"/>
</svg>
