<svg width="26" height="26" viewBox="0 0 26 26" fill="none" xmlns="http://www.w3.org/2000/svg">
<g id="cash 1">
<path id="Vector" d="M3.25 6.5H22.75V19.5H3.25V6.5ZM13 9.75C13.862 9.75 14.6886 10.0924 15.2981 10.7019C15.9076 11.3114 16.25 12.138 16.25 13C16.25 13.862 15.9076 14.6886 15.2981 15.2981C14.6886 15.9076 13.862 16.25 13 16.25C12.138 16.25 11.3114 15.9076 10.7019 15.2981C10.0924 14.6886 9.75 13.862 9.75 13C9.75 12.138 10.0924 11.3114 10.7019 10.7019C11.3114 10.0924 12.138 9.75 13 9.75ZM7.58333 8.66667C7.58333 9.2413 7.35506 9.7924 6.94873 10.1987C6.5424 10.6051 5.9913 10.8333 5.41667 10.8333V15.1667C5.9913 15.1667 6.5424 15.3949 6.94873 15.8013C7.35506 16.2076 7.58333 16.7587 7.58333 17.3333H18.4167C18.4167 16.7587 18.6449 16.2076 19.0513 15.8013C19.4576 15.3949 20.0087 15.1667 20.5833 15.1667V10.8333C20.0087 10.8333 19.4576 10.6051 19.0513 10.1987C18.6449 9.7924 18.4167 9.2413 18.4167 8.66667H7.58333Z" fill="#154162"/>
</g>
</svg>
