<svg width="50" height="50" viewBox="0 0 50 50" fill="none" xmlns="http://www.w3.org/2000/svg">
<path d="M25.0013 41.6668C34.168 41.6668 41.668 34.1667 41.668 25.0001C41.668 15.8334 34.168 8.33342 25.0013 8.33342C15.8346 8.33342 8.33464 15.8334 8.33464 25.0001C8.33464 34.1667 15.8346 41.6668 25.0013 41.6668ZM25.0013 4.16675C36.4596 4.16675 45.8346 13.5417 45.8346 25.0001C45.8346 36.4584 36.4596 45.8334 25.0013 45.8334C13.543 45.8334 4.16797 36.4584 4.16797 25.0001C4.16797 13.5417 13.543 4.16675 25.0013 4.16675ZM35.418 28.9584L33.9596 31.6667L22.918 25.6251V14.5834H26.043V23.7501L35.418 28.9584Z" fill="#30ABC8"/>
</svg>
