<svg width="42" height="38" viewBox="0 0 42 38" fill="none" xmlns="http://www.w3.org/2000/svg">
<path d="M35.0013 24.7499C35.7305 22.9791 36.1263 21.0833 36.1263 18.9999C36.1263 17.4999 35.8971 16.0624 35.5013 14.7291C34.1471 15.0416 32.7305 15.2083 31.2513 15.2083C24.8763 15.2083 19.2305 12.0624 15.793 7.20825C13.9388 11.7083 10.3971 15.3749 5.9388 17.3749C5.85547 17.8958 5.85547 18.4583 5.85547 18.9999C5.85547 23.0168 7.45119 26.8692 10.2916 29.7096C13.132 32.55 16.9844 34.1458 21.0013 34.1458C23.1888 34.1458 25.293 33.6666 27.1888 32.8124C28.3763 35.0832 28.918 36.2083 28.8763 36.2083C25.4596 37.3541 22.8138 37.9166 21.0013 37.9166C15.9596 37.9166 11.1471 35.9374 7.60547 32.3749C5.4388 30.2083 3.83464 27.5624 2.9388 24.6874H0.167969V15.2083H2.4388C4.1888 6.58325 11.8346 0.083252 21.0013 0.083252C26.0013 0.083252 30.8138 2.06242 34.3763 5.62492C37.0221 8.24992 38.793 11.6041 39.5221 15.2083H41.8346V24.5624V24.6041V24.6874H41.7096L34.293 31.4999L23.2513 30.2499V26.7708H33.3138L35.0013 24.7499ZM15.3138 18.5208C15.9388 18.5208 16.543 18.7708 16.9805 19.2291C17.418 19.6666 17.668 20.2708 17.668 20.8958C17.668 21.5208 17.418 22.1249 16.9805 22.5624C16.543 22.9999 15.9388 23.2499 15.3138 23.2499C14.0013 23.2499 12.9388 22.2083 12.9388 20.8958C12.9388 19.5833 14.0013 18.5208 15.3138 18.5208ZM26.668 18.5208C27.9805 18.5208 29.0221 19.5833 29.0221 20.8958C29.0221 22.2083 27.9805 23.2499 26.668 23.2499C25.3555 23.2499 24.293 22.2083 24.293 20.8958C24.293 20.2659 24.5432 19.6618 24.9886 19.2164C25.434 18.771 26.0381 18.5208 26.668 18.5208Z" fill="#154162"/>
</svg>
