<svg width="1266" height="379" viewBox="0 0 1266 379" fill="none" xmlns="http://www.w3.org/2000/svg">
<path d="M535.751 251.935C535.751 263.464 531.341 267.872 520.491 267.872H482.173V228.538H520.491C531.341 228.538 535.751 233.963 535.751 244.475V251.935ZM520.491 202.767H440.466V226.842L454.709 228.877V325.178H482.173V293.642H520.491C552.026 293.642 562.878 277.705 562.878 252.952V243.458C562.878 220.061 552.705 202.767 520.491 202.767V202.767ZM1111.53 202.767H1121.7V325.178H1094.24V238.368L1037.61 325.178H1006.07V202.767H1033.54V286.539L1074.91 222.434C1085.42 206.157 1094.57 202.767 1111.53 202.767ZM336.376 53.2238H411.314V68.4821C411.314 80.6898 410.296 90.8615 407.583 100.017H384.186V78.9938H336.376C322.133 78.9938 318.741 82.7244 318.741 98.3227V130.535C318.741 146.133 322.133 149.864 336.376 149.864H411.314V175.634H336.376C301.45 175.634 291.277 165.462 291.277 130.535V98.3227C291.277 63.0569 301.45 53.2238 336.376 53.2238ZM1094.24 53.2238H1121.7V175.634H1094.24V126.466H1033.54V175.634H1006.07V53.2238H1033.54V100.696H1094.24V53.2238ZM370.281 299.404H322.808V275.668H370.281C379.437 275.668 382.828 280.076 382.828 287.195C382.828 294.317 379.437 299.405 370.281 299.405V299.404ZM377.401 239.384C377.401 246.846 373.673 250.913 364.178 250.913H322.808V228.872H364.178C373.673 228.872 377.401 232.263 377.401 239.384V239.384ZM393.082 260.487C399.519 256.558 404.869 248.207 404.869 235.315C404.869 218.7 395.374 202.763 367.229 202.763H295.343V325.174H369.943C397.069 325.174 410.294 311.272 410.294 288.553C410.294 273.276 401.521 264.272 393.082 260.487V260.487ZM907.056 202.763H982.673V218.022C982.673 230.23 981.657 240.402 978.942 249.558H955.545V228.534H907.056C892.815 228.534 889.424 232.263 889.424 247.862V280.075C889.424 295.674 892.815 299.404 907.056 299.404H982.673V325.174H907.056C872.13 325.174 861.957 315.001 861.957 280.075V247.862C861.957 212.596 872.13 202.763 907.056 202.763V202.763ZM675.462 280.075C675.462 295.674 672.071 299.404 657.83 299.404H625.278C611.035 299.404 607.645 295.674 607.645 280.075V247.862C607.645 232.263 611.035 228.534 625.278 228.534H657.83C672.071 228.534 675.462 232.263 675.462 247.862V280.075ZM657.83 202.763H625.278C590.351 202.763 580.179 212.596 580.179 247.862V280.075C580.179 315.001 590.351 325.174 625.278 325.174H657.83C693.096 325.174 702.929 315.001 702.929 280.075V247.862C702.929 212.596 693.096 202.763 657.83 202.763ZM475.461 78.9951H523.89V146.135H465.139C468.894 139.575 470.478 130.43 471.67 118.669L475.461 78.9951ZM551.354 53.2251H451.323L445.221 115.278C442.169 144.779 437.76 149.525 429.621 149.525H427.927V187.164H454.037L455.054 171.566H535.757L536.775 187.164H562.885V149.187H551.354V53.2251ZM767.349 202.768H842.627V218.028C842.627 230.235 841.61 240.407 838.896 249.563H815.5V228.539H767.349C753.107 228.539 749.716 232.269 749.716 247.867V280.081C749.716 295.679 753.107 299.41 767.349 299.41H842.627V325.18H767.349C732.423 325.18 722.25 315.006 722.25 280.081V247.867C722.25 212.601 732.423 202.768 767.349 202.768V202.768ZM1237.67 130.542C1237.67 146.14 1234.28 149.871 1220.04 149.871H1189.86C1175.62 149.871 1172.23 146.14 1172.23 130.542V98.3293C1172.23 82.7311 1175.62 79.0005 1189.86 79.0005H1220.04C1234.28 79.0005 1237.67 82.7311 1237.67 98.3293V130.542ZM1220.04 53.2305H1189.86C1154.93 53.2305 1144.76 63.0635 1144.76 98.3293V130.542C1144.76 165.469 1158.32 175.641 1193.25 175.641H1216.65C1251.91 175.641 1265.14 165.469 1265.14 130.542V98.3293C1265.14 63.0635 1255.3 53.2305 1220.04 53.2305ZM582.215 130.542V98.3293C582.215 63.0635 592.048 53.2305 627.314 53.2305H699.2V79.0005H625.956C611.715 79.0005 609.681 81.3738 609.681 96.972V101.041H679.194V126.473H609.681V131.899C609.681 147.497 611.715 149.871 625.956 149.871H700.219V175.641H627.314C592.048 175.641 582.215 165.469 582.215 130.542V130.542ZM909.78 79.0005H952.844V109.18H892.147V98.3293C892.147 84.427 893.843 79.0005 909.78 79.0005ZM892.147 134.611H952.844V175.641H980.31V53.2305H909.78C875.193 53.2305 864.681 62.7249 864.681 98.3293V175.641H892.147V134.611ZM161.752 202.768H189.218V325.18H101.395C66.129 325.18 52.9053 311.955 52.9053 276.69V202.768H80.3713V277.368C80.3713 292.967 86.4753 299.41 100.717 299.41H161.753L161.752 202.768ZM26.4487 26.4391H215.657V351.964H26.4487V26.4391ZM0 378.417H242.114V-0.000214191H0V378.417ZM716.835 175.649V149.539C728.025 149.539 730.736 142.758 733.111 120.038L740.571 53.2385H838.906V175.649H811.441V79.0085H764.078L759.221 125.803C755.152 166.154 744.3 177.006 716.835 175.649V175.649ZM1252.93 202.776H1263.1V325.188H1235.64V238.378L1179.01 325.188H1147.47V202.776H1174.94V286.549L1216.31 222.444C1226.82 206.167 1235.97 202.776 1252.93 202.776V202.776ZM148.183 106.814H80.3633V79.0085H148.183C158.353 79.0085 163.101 84.435 163.101 92.5721C163.101 100.711 159.032 106.814 148.183 106.814ZM190.569 89.5202C190.569 69.1754 180.735 53.2385 151.911 53.2385H52.8987V175.649H80.3647V132.584H143.775C158.017 132.584 161.747 136.654 161.747 150.896V175.649H189.213V146.487C189.213 131.942 184.053 123.409 172.592 120.506C184.515 116.476 190.57 104.946 190.57 89.5202" fill="#0065DC"/>
</svg>
