<svg width="27" height="26" viewBox="0 0 27 26" fill="none" xmlns="http://www.w3.org/2000/svg">
<path d="M13.5 12.4583C12.7541 12.4583 12.0387 12.173 11.5113 11.6651C10.9838 11.1572 10.6875 10.4683 10.6875 9.74999C10.6875 9.0317 10.9838 8.34282 11.5113 7.83491C12.0387 7.327 12.7541 7.04166 13.5 7.04166C14.2459 7.04166 14.9613 7.327 15.4887 7.83491C16.0162 8.34282 16.3125 9.0317 16.3125 9.74999C16.3125 10.1057 16.2398 10.4578 16.0984 10.7864C15.9571 11.115 15.7499 11.4136 15.4887 11.6651C15.2276 11.9166 14.9175 12.1161 14.5763 12.2522C14.2351 12.3883 13.8693 12.4583 13.5 12.4583ZM13.5 2.16666C11.4114 2.16666 9.40838 2.96561 7.93153 4.38776C6.45468 5.80991 5.625 7.73877 5.625 9.74999C5.625 15.4375 13.5 23.8333 13.5 23.8333C13.5 23.8333 21.375 15.4375 21.375 9.74999C21.375 7.73877 20.5453 5.80991 19.0685 4.38776C17.5916 2.96561 15.5886 2.16666 13.5 2.16666Z" fill="#154162"/>
</svg>
