<svg width="50" height="50" viewBox="0 0 50 50" fill="none" xmlns="http://www.w3.org/2000/svg">
<path d="M25.0013 41.6668C15.8138 41.6668 8.33464 34.1876 8.33464 25.0001C8.33464 15.8126 15.8138 8.33342 25.0013 8.33342C34.1888 8.33342 41.668 15.8126 41.668 25.0001C41.668 34.1876 34.1888 41.6668 25.0013 41.6668ZM25.0013 4.16675C22.2654 4.16675 19.5563 4.70562 17.0287 5.75259C14.5011 6.79956 12.2045 8.33414 10.2699 10.2687C6.3629 14.1757 4.16797 19.4747 4.16797 25.0001C4.16797 30.5254 6.3629 35.8245 10.2699 39.7315C12.2045 41.666 14.5011 43.2006 17.0287 44.2476C19.5563 45.2945 22.2654 45.8334 25.0013 45.8334C30.5266 45.8334 35.8257 43.6385 39.7327 39.7315C43.6397 35.8245 45.8346 30.5254 45.8346 25.0001C45.8346 22.2642 45.2958 19.5551 44.2488 17.0275C43.2018 14.4999 41.6673 12.2032 39.7327 10.2687C37.7981 8.33414 35.5015 6.79956 32.9739 5.75259C30.4463 4.70562 27.7372 4.16675 25.0013 4.16675ZM27.0846 14.5834H22.918V22.9167H14.5846V27.0834H22.918V35.4167H27.0846V27.0834H35.418V22.9167H27.0846V14.5834Z" fill="#D2F7FF"/>
</svg>
