<svg width="25" height="26" viewBox="0 0 25 26" fill="none" xmlns="http://www.w3.org/2000/svg">
<g id="vk-fill-svgrepo-com 1">
<g clip-path="url(#clip0_2049_8892)">
<rect width="25" height="26" rx="12.5" fill="#154162"/>
<path id="Vector" fill-rule="evenodd" clip-rule="evenodd" d="M1.75 1.82C1.49012e-07 3.65733 0 6.59533 0 12.48V13.52C0 19.396 1.49012e-07 22.334 1.75 24.18C3.51666 26 6.34166 26 12 26H13C18.65 26 21.475 26 23.25 24.18C25 22.3427 25 19.4047 25 13.52V12.48C25 6.604 25 3.666 23.25 1.82C21.4834 1.54972e-07 18.6584 0 13 0H12C6.35 0 3.525 1.54972e-07 1.75 1.82ZM4.21666 7.91267C4.35 14.6727 7.6 18.7287 13.3 18.7287H13.6334V14.8633C15.725 15.08 17.3084 16.6747 17.9416 18.7287H20.9C20.5966 17.5616 20.0586 16.4745 19.3217 15.5393C18.5849 14.6042 17.6658 13.8421 16.625 13.3033C17.5576 12.7127 18.3631 11.9283 18.9911 10.9993C19.6191 10.0703 20.0562 9.0166 20.275 7.904H17.5916C17.0084 10.0533 15.275 12.0033 13.6334 12.1853V7.91267H10.9416V15.4007C9.275 14.9673 7.175 12.87 7.08332 7.91267H4.21666Z" fill="#D2F7FF"/>
</g>
</g>
<defs>
<clipPath id="clip0_2049_8892">
<rect width="25" height="26" rx="12.5" fill="white"/>
</clipPath>
</defs>
</svg>
