<svg width="27" height="26" viewBox="0 0 27 26" fill="none" xmlns="http://www.w3.org/2000/svg">
<path d="M19.6554 9.39254H21.3767V24.9167H19.6554V13.65C18.7554 13.4767 17.9117 13.1517 17.1129 12.6859C16.3142 12.22 15.6392 11.6784 15.0654 11.05L14.3679 14.3759L16.8767 16.7592V24.9167H14.6267V18.4167L12.1067 16.0334L10.0029 24.9167H7.57292C7.57292 24.9167 11.0942 7.82171 11.1279 7.68087C11.2517 7.16087 11.4992 6.76004 11.9154 6.50004C12.3317 6.20754 12.7479 6.06671 13.1754 6.06671C13.6142 6.06671 14.0192 6.16421 14.3904 6.35921C14.7729 6.54337 15.0654 6.81421 15.2792 7.16087L16.4717 8.92671C16.7979 9.51171 17.2367 10.0209 17.7879 10.4325C18.3392 10.8442 18.9692 11.1584 19.6554 11.375V9.39254ZM9.62042 6.38087L8.32667 6.12087C7.68542 5.95837 7.10042 6.08837 6.57167 6.43504C6.05417 6.78171 5.73917 7.25837 5.62667 7.88671L4.71542 12.1984C4.68167 12.5125 4.74917 12.7942 4.92917 13.0542C5.10917 13.3142 5.34542 13.455 5.62667 13.4984L8.11292 13.9642L9.62042 6.38087ZM14.6267 1.08337C13.3892 1.08337 12.3767 2.05837 12.3767 3.25004C12.3767 4.44171 13.3892 5.41671 14.6267 5.41671C15.8642 5.41671 16.8767 4.45254 16.8767 3.25004C16.8767 2.04754 15.8754 1.08337 14.6267 1.08337Z" fill="#30ABC8"/>
</svg>
